<svg width="43" height="43" viewBox="0 0 43 43" fill="none" xmlns="http://www.w3.org/2000/svg">
<g filter="url(#filter0_d_4_33)">
<path d="M5.60054 1.02513C6.96738 -0.341709 9.18345 -0.341709 10.5503 1.02513L37.4532 27.928C38.82 29.2948 38.82 31.5109 37.4532 32.8778C36.0863 34.2446 33.8703 34.2446 32.5034 32.8778L5.60054 5.97488C4.23371 4.60804 4.23371 2.39196 5.60054 1.02513Z" fill="#6490D3"/>
<path d="M5.02513 33.489C3.65829 32.1221 3.65829 29.9061 5.02513 28.5392L31.928 1.63636C33.2948 0.269521 35.5109 0.269519 36.8778 1.63635C38.2446 3.00319 38.2446 5.21927 36.8778 6.5861L9.97488 33.489C8.60804 34.8558 6.39196 34.8558 5.02513 33.489Z" fill="#6490D3"/>
</g>
<defs>
<filter id="filter0_d_4_33" x="0" y="0" width="42.4783" height="42.5141" filterUnits="userSpaceOnUse" color-interpolation-filters="sRGB">
<feFlood flood-opacity="0" result="BackgroundImageFix"/>
<feColorMatrix in="SourceAlpha" type="matrix" values="0 0 0 0 0 0 0 0 0 0 0 0 0 0 0 0 0 0 127 0" result="hardAlpha"/>
<feOffset dy="4"/>
<feGaussianBlur stdDeviation="2"/>
<feComposite in2="hardAlpha" operator="out"/>
<feColorMatrix type="matrix" values="0 0 0 0 0 0 0 0 0 0 0 0 0 0 0 0 0 0 0.25 0"/>
<feBlend mode="normal" in2="BackgroundImageFix" result="effect1_dropShadow_4_33"/>
<feBlend mode="normal" in="SourceGraphic" in2="effect1_dropShadow_4_33" result="shape"/>
</filter>
</defs>
</svg>
