<svg width="54" height="52" viewBox="0 0 54 52" fill="none" xmlns="http://www.w3.org/2000/svg">
<path d="M46 1.5H8C4.41015 1.5 1.5 4.41015 1.5 8V43.2484C1.5 46.8383 4.41015 49.7484 8 49.7484H46C49.5899 49.7484 52.5 46.8383 52.5 43.2484V8C52.5 4.41015 49.5899 1.5 46 1.5Z" fill="#E8F1FF" stroke="#717171" stroke-width="3"/>
<g filter="url(#filter0_d_1_32)">
<path fill-rule="evenodd" clip-rule="evenodd" d="M27 44C36.9411 44 45 35.9411 45 26C45 16.0589 36.9411 8 27 8C17.0589 8 9 16.0589 9 26C9 35.9411 17.0589 44 27 44ZM26.55 38.6C33.2603 38.6 38.7 33.1603 38.7 26.45C38.7 19.7397 33.2603 14.3 26.55 14.3C19.8397 14.3 14.4 19.7397 14.4 26.45C14.4 33.1603 19.8397 38.6 26.55 38.6Z" fill="#EA7575"/>
</g>
<defs>
<filter id="filter0_d_1_32" x="5" y="8" width="44" height="44" filterUnits="userSpaceOnUse" color-interpolation-filters="sRGB">
<feFlood flood-opacity="0" result="BackgroundImageFix"/>
<feColorMatrix in="SourceAlpha" type="matrix" values="0 0 0 0 0 0 0 0 0 0 0 0 0 0 0 0 0 0 127 0" result="hardAlpha"/>
<feOffset dy="4"/>
<feGaussianBlur stdDeviation="2"/>
<feComposite in2="hardAlpha" operator="out"/>
<feColorMatrix type="matrix" values="0 0 0 0 0 0 0 0 0 0 0 0 0 0 0 0 0 0 0.25 0"/>
<feBlend mode="normal" in2="BackgroundImageFix" result="effect1_dropShadow_1_32"/>
<feBlend mode="normal" in="SourceGraphic" in2="effect1_dropShadow_1_32" result="shape"/>
</filter>
</defs>
</svg>
